<svg width="4" height="6" viewBox="0 0 4 6" fill="none" xmlns="http://www.w3.org/2000/svg">
<path d="M0.150814 3.34662L2.80642 5.85367C2.90422 5.95124 3.02634 6 3.17303 6C3.31972 6 3.44185 5.95118 3.53964 5.85367L3.8492 5.5648C3.9497 5.4698 3.99994 5.35432 3.99994 5.21825C3.99994 5.08475 3.94971 4.9679 3.8492 4.8678L1.86966 2.99999L3.84929 1.12833C3.94975 1.03333 4 0.917849 4 0.781762C4 0.648278 3.94977 0.531386 3.84929 0.431327L3.5397 0.142494C3.43922 0.0474933 3.31697 -2.26185e-07 3.17309 -2.38764e-07C3.02915 -2.51347e-07 2.90693 0.0474933 2.80648 0.142494L0.150814 2.64955C0.0502909 2.74968 3.30679e-07 2.8665 3.19008e-07 3C-1.39595e-05 3.13607 0.0502909 3.25162 0.150814 3.34662Z" fill="white"/>
</svg>
