<svg width="13" height="12" viewBox="0 0 13 12" fill="none" xmlns="http://www.w3.org/2000/svg">
<path d="M12.7034 4.27174C12.5573 4.11781 12.3576 4.0177 12.1401 3.98927V3.98885L8.74281 3.54829L7.39841 0.532645C7.2021 0.0912375 6.66178 -0.1172 6.1916 0.0670818C5.96745 0.154941 5.78922 0.322224 5.69565 0.532645L4.35125 3.54829L0.953934 3.98885C0.447774 4.05499 0.0945612 4.49383 0.165017 4.96899C0.195296 5.17318 0.301942 5.3606 0.46591 5.49775L3.02555 7.64046L2.49962 11.0028C2.44264 11.3442 2.60969 11.6844 2.92326 11.8654C3.23242 12.051 3.63009 12.0441 3.93168 11.8478L6.547 10.1782L9.16233 11.8496C9.58434 12.1184 10.1587 12.0153 10.4451 11.6191C10.5753 11.4391 10.6286 11.2197 10.5944 11.0045L10.0685 7.64086L12.6281 5.49815C13.0097 5.17901 13.0434 4.6299 12.7034 4.27174ZM9.27692 7.15661C9.16241 7.25266 9.10701 7.39629 9.12946 7.53889L9.67726 11.1386L6.80494 9.30534C6.65009 9.20656 6.44667 9.20656 6.29182 9.30534L3.40259 11.1275L3.96455 7.53718C3.98638 7.39516 3.93101 7.25231 3.81709 7.15664L1.07805 4.83907L4.73375 4.36552C4.89382 4.34481 5.03026 4.2462 5.09256 4.10626L6.55246 0.857065C6.55412 0.858973 6.55535 0.861158 6.55612 0.863493L8.00097 4.10455C8.06326 4.24449 8.19973 4.3431 8.35977 4.36381L12.0201 4.85835L9.27692 7.15661Z" fill="#C7CED6"/>
</svg>
